<svg xmlns="http://www.w3.org/2000/svg" viewBox="0 0 800 600">
  <!-- Background -->
  <defs>
    <radialGradient id="bgGradient" cx="50%" cy="50%" r="50%" fx="50%" fy="50%">
      <stop offset="0%" style="stop-color:#ffecd1;stop-opacity:1" />
      <stop offset="100%" style="stop-color:#a1887f;stop-opacity:1" />
    </radialGradient>
  </defs>
  <rect width="100%" height="100%" fill="url(#bgGradient)"/>

  <!-- Table -->
  <path d="M 0 500 Q 400 450, 800 500 L 800 600 L 0 600 Z" fill="#6d4c41" />

  <!-- Dosa -->
  <path d="M 150 480 C 250 520, 550 480, 650 450 C 600 420, 300 400, 150 480 Z" fill="#f5b74d" stroke="#4e342e" stroke-width="4"/>

  <!-- Chutney Bowl -->
  <ellipse cx="600" cy="510" rx="40" ry="15" fill="#fff" stroke="#4e342e" stroke-width="2"/>
  <ellipse cx="600" cy="505" rx="35" ry="12" fill="#8fbc8f" />

  <!-- Person -->
  <g>
    <!-- Shirt -->
    <path d="M 300 300 C 250 450, 550 450, 500 300 L 480 250 L 320 250 Z" fill="#f5f5dc" stroke="#4e342e" stroke-width="4"/>
    
    <!-- Head -->
    <circle cx="400" cy="200" r="100" fill="#ffdab9" stroke="#4e342e" stroke-width="4"/>
    
    <!-- Hair -->
    <path d="M 320 150 Q 400 100, 480 150 C 460 120, 340 120, 320 150 Z" fill="#212121"/>
    
    <!-- Glasses -->
    <g stroke="#212121" stroke-width="3">
      <circle cx="360" cy="200" r="25" fill="none"/>
      <circle cx="440" cy="200" r="25" fill="none"/>
      <path d="M 385 200 H 415"/>
    </g>
    
    <!-- Smile -->
    <path d="M 370 240 Q 400 260, 430 240" fill="none" stroke="#4e342e" stroke-width="3"/>
  </g>
</svg>
